<mxfile host="app.diagrams.net" modified="2023-07-12T16:17:01.663Z" agent="Mozilla/5.0 (Windows NT 10.0; Win64; x64) AppleWebKit/537.36 (KHTML, like Gecko) Chrome/114.0.0.0 Safari/537.36" version="21.6.2" etag="3An1y5v1YrwZcWuFJsAK" type="github">
  <diagram name="PÃ¡gina-1" id="Lb1ujLw-7j1RdwZlbdgM">
    <mxGraphModel>
      <root>
        <mxCell id="0" />
        <mxCell id="1" parent="0" />
      </root>
    </mxGraphModel>
  </diagram>
</mxfile>
